<svg width="56" height="56" viewBox="0 0 56 56" fill="none" xmlns="http://www.w3.org/2000/svg">
<path d="M28 32.6667C30.5774 32.6667 32.6667 30.5774 32.6667 28C32.6667 25.4227 30.5774 23.3334 28 23.3334C25.4227 23.3334 23.3334 25.4227 23.3334 28C23.3334 30.5774 25.4227 32.6667 28 32.6667Z" fill="#2D4A6B"/>
<path d="M28 14.5833C29.6109 14.5833 30.9167 13.2775 30.9167 11.6667C30.9167 10.0558 29.6109 8.75 28 8.75C26.3892 8.75 25.0834 10.0558 25.0834 11.6667C25.0834 13.2775 26.3892 14.5833 28 14.5833Z" fill="#2D4A6B"/>
<path d="M28 14.5834V23.3334" stroke="#2D4A6B" stroke-width="1.75"/>
<path d="M42 30.9167C43.6109 30.9167 44.9167 29.6109 44.9167 28C44.9167 26.3892 43.6109 25.0834 42 25.0834C40.3892 25.0834 39.0834 26.3892 39.0834 28C39.0834 29.6109 40.3892 30.9167 42 30.9167Z" fill="#2D4A6B"/>
<path d="M39.0833 28H32.6666" stroke="#2D4A6B" stroke-width="1.75"/>
<path d="M16.3333 42.5833C17.9441 42.5833 19.25 41.2775 19.25 39.6667C19.25 38.0558 17.9441 36.75 16.3333 36.75C14.7225 36.75 13.4166 38.0558 13.4166 39.6667C13.4166 41.2775 14.7225 42.5833 16.3333 42.5833Z" fill="#2D4A6B"/>
<path d="M18.0834 37.9166L25.0834 30.9166" stroke="#2D4A6B" stroke-width="1.75"/>
<path d="M39.6667 42.5833C41.2775 42.5833 42.5833 41.2775 42.5833 39.6667C42.5833 38.0558 41.2775 36.75 39.6667 36.75C38.0558 36.75 36.75 38.0558 36.75 39.6667C36.75 41.2775 38.0558 42.5833 39.6667 42.5833Z" fill="#2D4A6B"/>
<path d="M37.9166 37.9166L30.9166 30.9166" stroke="#2D4A6B" stroke-width="1.75"/>
</svg>
